# xmcd
#
# Track frame offsets: 
#        150
#        4114
#        7006
#        11344
#        16403
#        19299
#        25104
#        29442
#        35218
#        41724
#        46812
#        51165
#        57667
#        61966
#        68479
#        75675
#        78567
#        84343
#        90125
#        95912
#        102422
#        108216
#        115635
#        121429
#        125765
#        133010
#        138796
#        146735
#        151746
#        156391
#        160390
#        165783
#        172473
#        176451
#        180501
#        187185
#        191690
#        197533
#        201822
#        205849
#        213780
#        217843
#        223447
#        228552
#        233227
#        239881
#        245275
#        252635
#        260803
#        266630
#        272606
#        277321
#        282822
#        288706
#        295792
#        303664
#
# Disc length: 4185 seconds
#
# Revision: 0
# Processed by: cddbd v1.4PL0 Copyright (c) Steve Scherf et al.
# Submitted via: ExactAudioCopy v0.90b4
#
DISCID=47105738
DTITLE=Various Artist - Clubtracks Yearmix 2001
DYEAR=2001
DGENRE=R&B/Hip-Hop
TTITLE0=Intro
TTITLE1=Jay-Z - Izzo
TTITLE2=aaliyah - We Need A Resolution
TTITLE3=Li'l Bow Wow - Bow Wow (That's My Name)
TTITLE4=QB Finest - Oochie Wally
TTITLE5=Eve - Who's that Girl
TTITLE6=R. Kelly - Fiesta
TTITLE7=Beenie Man - Girls Dem Sugar
TTITLE8=Xzibit - X
TTITLE9=Mystikal - Danger
TTITLE10=Eric Benet - Love Don't Love Me
TTITLE11=Tyrese - I Like Them Girls
TTITLE12=Libety City - I Met Her In Miami
TTITLE13=Pharoaha Monch - Oh No
TTITLE14=Coo Coo Cal - My Projects
TTITLE15=3LW - Playas Gon'Play
TTITLE16=Joe - Stutter
TTITLE17=Lucacris - Area Codes
TTITLE18=P. Diddy - The Saga Continues
TTITLE19=Snoop Dog - Losin' Control
TTITLE20=Blu Cantrell - Hit 'Em Up Style
TTITLE21=Ray J. - Wait A Minute
TTITLE22=Ja Rule - Put It On Me
TTITLE23=Jermaine Dupri - Lay It Down
TTITLE24=Chante Moore - Straight Up
TTITLE25=Li'l Bow Wow - Puppy Love
TTITLE26=Destiny's Child - Bootylicious
TTITLE27=Usher - I Don't Know
TTITLE28=Christina Millian - Am to PM
TTITLE29=The Product G&B - Cluck Cluck
TTITLE30=Nelly - ride With Me
TTITLE31=Jon B - Don't Talk
TTITLE32=Dante - Miss California
TTITLE33=N.E.R.D. - Lapdance
TTITLE34=Red Man - Let's Get Dirty
TTITLE35=Sisqo - Gan I Live
TTITLE36=Mya - Free
TTITLE37=Busta Rhymes - What It Is
TTITLE38=Babyface - There She Goes
TTITLE39=Ruff Endz - Cash, Money, Car, Clothes
TTITLE40=112 - Dance With Me
TTITLE41=Jay-Z - Guilty
TTITLE42=Pink - You Make Me Sick
TTITLE43=Funk Master Flex - Good Life
TTITLE44=Veronica - Girls Gotta Have Fun
TTITLE45=Beatnuts - Let's Git Doe
TTITLE46=Janet - All For You
TTITLE47=RL and   Snoop Dogg - Do You Wanna Roll
TTITLE48=Foxy Brown - Tables Will Turn/Oh Yeah
TTITLE49=RZA - La Rhumba
TTITLE50=Bubba Sparxx - Ugly
TTITLE51=Missy Elliot - Get Ur Freak On
TTITLE52=Dr. Dre - Bad Intentions
TTITLE53=Timbaland - One And All
TTITLE54=DMX - We Right Here
TTITLE55=Jay Z - He Papi
EXTD=
EXTT0=
EXTT1=
EXTT2=
EXTT3=
EXTT4=
EXTT5=
EXTT6=
EXTT7=
EXTT8=
EXTT9=
EXTT10=
EXTT11=
EXTT12=
EXTT13=
EXTT14=
EXTT15=
EXTT16=
EXTT17=
EXTT18=
EXTT19=
EXTT20=
EXTT21=
EXTT22=
EXTT23=
EXTT24=
EXTT25=
EXTT26=
EXTT27=
EXTT28=
EXTT29=
EXTT30=
EXTT31=
EXTT32=
EXTT33=
EXTT34=
EXTT35=
EXTT36=
EXTT37=
EXTT38=
EXTT39=
EXTT40=
EXTT41=
EXTT42=
EXTT43=
EXTT44=
EXTT45=
EXTT46=
EXTT47=
EXTT48=
EXTT49=
EXTT50=
EXTT51=
EXTT52=
EXTT53=
EXTT54=
EXTT55=
PLAYORDER=
